normalP032_grf.mot
version=1
nRows=25
nColumns=19
inDegrees=yes
endheader
time	1_ground_force_vx	1_ground_force_vy	1_ground_force_vz	1_ground_force_px	1_ground_force_py	1_ground_force_pz	1_ground_torque_x	1_ground_torque_y	1_ground_torque_z	2_ground_force_vx	2_ground_force_vy	2_ground_force_vz	2_ground_force_px	2_ground_force_py	2_ground_force_pz	2_ground_torque_x	2_ground_torque_y	2_ground_torque_z
            2.303000	           -0.176414	           -0.154319	           -0.228652	            0.380434	            0.003292	           -0.320246	            0.083255	           -0.024936	            0.143619	          -60.365571	          655.405989	          -20.833198	            1.079496	            0.001265	           -0.206884	           -0.009248	            0.100407	           -0.003192
            2.304000	           -0.160896	            0.005574	           -0.266139	            0.380434	            0.003292	           -0.320246	           -0.117525	           -0.012164	            0.143505	          -59.968439	          654.287483	          -20.854078	            1.079921	            0.001265	           -0.207063	           -0.008635	            0.094214	           -0.003003
            2.305000	           -0.137652	            0.164572	           -0.265424	            0.380434	            0.003292	           -0.320246	            0.083360	           -0.018725	            0.102101	          -59.710641	          652.208968	          -20.864827	            1.080287	            0.001263	           -0.206822	           -0.010673	            0.116575	           -0.003729
            2.306000	           -0.185007	           -0.552672	           -0.284177	            0.380434	            0.003292	           -0.320246	           -0.000248	           -0.015232	            0.081720	          -59.351967	          651.008750	          -20.863073	            1.081087	            0.001262	           -0.206869	           -0.010525	            0.115445	           -0.003700
            2.307000	           -0.146084	           -0.154371	           -0.251668	            0.380434	            0.003292	           -0.320246	           -0.050412	           -0.007977	            0.102274	          -59.000549	          650.128764	          -20.859728	            1.081358	            0.001262	           -0.206786	           -0.012289	            0.135412	           -0.004345
            2.308000	           -0.154152	           -0.393128	           -0.260484	            0.380434	            0.003292	           -0.320246	           -0.000348	           -0.014784	            0.081598	          -58.672339	          649.088722	          -20.834211	            1.081801	            0.001261	           -0.206741	           -0.013006	            0.143885	           -0.004618
            2.309000	           -0.160983	            0.086102	           -0.242911	            0.380434	            0.003292	           -0.320246	           -0.000646	           -0.015270	            0.039781	          -58.321991	          647.408560	          -20.827575	            1.082482	            0.001259	           -0.206547	           -0.012793	            0.142013	           -0.004569
            2.310000	           -0.199446	           -0.073194	           -0.228246	            0.380434	            0.003292	           -0.320246	           -0.067513	           -0.003041	           -0.001539	          -58.032215	          646.288207	          -20.763985	            1.082982	            0.001258	           -0.206471	           -0.013844	            0.154177	           -0.004953
            2.311000	           -0.123962	           -0.551597	           -0.245976	            0.380434	            0.003292	           -0.320246	           -0.134357	           -0.008272	           -0.042764	          -57.673602	          645.088020	          -20.693229	            1.083474	            0.001257	           -0.206416	           -0.015317	            0.171328	           -0.005496
            2.312000	           -0.200687	           -0.633472	           -0.223368	            0.380434	            0.003292	           -0.320246	            0.016587	           -0.005389	            0.226903	          -57.391204	          644.208199	          -20.605600	            1.083943	            0.001257	           -0.206535	           -0.014556	            0.163385	           -0.005226
            2.313000	           -0.207343	           -0.151666	           -0.228720	            0.380434	            0.003292	           -0.320246	           -0.118129	           -0.014710	           -0.022495	          -57.101838	          642.847144	          -20.497272	            1.084419	            0.001255	           -0.206264	           -0.018121	            0.204000	           -0.006505
            2.314000	           -0.159692	            0.803298	           -0.247090	            0.380434	            0.003292	           -0.320246	           -0.050715	           -0.003643	            0.060248	          -56.788072	          642.446843	          -20.399303	            1.084563	            0.001255	           -0.206313	           -0.017783	            0.201179	           -0.006388
            2.315000	           -0.168362	            0.245807	           -0.219175	            0.380434	            0.003292	           -0.320246	           -0.168019	           -0.012100	            0.039618	          -56.528826	          641.486337	          -20.273485	            1.085027	            0.001254	           -0.206302	           -0.020093	            0.228013	           -0.007206
            2.316000	           -0.168212	            0.324707	           -0.226460	            0.380434	            0.003292	           -0.320246	           -0.050728	           -0.014624	            0.101868	          -56.269772	          640.365110	          -20.179439	            1.085795	            0.001253	           -0.206223	           -0.020282	            0.230815	           -0.007274
            2.317000	           -0.154245	           -0.313795	           -0.244848	            0.380434	            0.003292	           -0.320246	            0.116828	           -0.004560	            0.102399	          -55.948496	          639.883914	          -20.028216	            1.085866	            0.001252	           -0.206086	           -0.021399	            0.244738	           -0.007660
            2.318000	           -0.122938	            0.006104	           -0.235713	            0.380434	            0.003292	           -0.320246	           -0.084248	           -0.020356	            0.060512	          -55.674208	          638.684224	          -19.926753	            1.086368	            0.001251	           -0.206134	           -0.022167	            0.254297	           -0.007934
            2.319000	           -0.161119	            0.087114	           -0.227613	            0.380434	            0.003292	           -0.320246	           -0.000906	           -0.005991	           -0.043195	          -55.437787	          637.803357	          -19.854369	            1.086976	            0.001250	           -0.206098	           -0.022383	            0.257516	           -0.008016
            2.320000	           -0.137992	            0.164958	           -0.219604	            0.380434	            0.003292	           -0.320246	           -0.017192	           -0.010268	            0.102010	          -55.085515	          637.562363	          -19.732327	            1.087209	            0.001250	           -0.206162	           -0.023846	            0.275996	           -0.008542
            2.321000	           -0.161915	           -0.311799	           -0.252540	            0.380434	            0.003292	           -0.320246	           -0.084294	           -0.011508	           -0.105096	          -54.811332	          636.280960	          -19.662162	            1.087706	            0.001248	           -0.205810	           -0.025659	            0.297858	           -0.009204
            2.322000	           -0.161805	           -0.232337	           -0.267509	            0.380434	            0.003292	           -0.320246	           -0.034157	           -0.016862	           -0.001555	          -54.482675	          635.561694	          -19.573488	            1.087879	            0.001248	           -0.205943	           -0.025485	            0.297295	           -0.009156
            2.323000	           -0.145655	            0.245652	           -0.226976	            0.380434	            0.003292	           -0.320246	           -0.034178	           -0.017369	            0.039649	          -54.154439	          634.600086	          -19.463121	            1.088353	            0.001246	           -0.205720	           -0.028192	            0.330359	           -0.010132
            2.324000	           -0.167939	            0.566858	           -0.255995	            0.380434	            0.003292	           -0.320246	           -0.001205	           -0.013286	           -0.167924	          -53.871744	          633.958998	          -19.320049	            1.088802	            0.001246	           -0.205731	           -0.031103	            0.366021	           -0.011155
            2.325000	           -0.169569	           -0.313582	           -0.221939	            0.380434	            0.003292	           -0.320246	           -0.017037	           -0.014803	            0.060852	          -53.474341	          633.077808	          -19.224645	            1.089222	            0.001244	           -0.205589	           -0.031648	            0.374681	           -0.011378
            2.326000	           -0.177009	           -0.154633	           -0.236539	            0.380434	            0.003292	           -0.320246	            0.049827	           -0.019647	            0.226527	          -53.145621	          632.437591	          -19.150926	            1.089474	            0.001244	           -0.205598	           -0.032995	            0.392641	           -0.011890
            2.327000	           -0.130987	           -0.072710	           -0.243796	            0.380434	            0.003292	           -0.320246	           -0.067664	           -0.008954	           -0.043078	          -52.801688	          631.716132	          -19.000804	            1.089915	            0.001243	           -0.205521	           -0.034343	            0.410873	           -0.012358
